<svg xmlns="http://www.w3.org/2000/svg" xmlns:xlink="http://www.w3.org/1999/xlink" width="500" zoomAndPan="magnify"
    viewBox="0 0 375 374.999991" height="500" preserveAspectRatio="xMidYMid meet" version="1.0">
    <defs>
        <g />
        <clipPath id="64db3c3261">
            <path
                d="M 38.945312 40.988281 L 332 40.988281 L 332 334.238281 L 38.945312 334.238281 Z M 38.945312 40.988281 "
                clip-rule="nonzero" />
        </clipPath>
        <clipPath id="1bb33a6d6d">
            <path
                d="M 109.371094 108.769531 L 266.871094 108.769531 L 266.871094 266.269531 L 109.371094 266.269531 Z M 109.371094 108.769531 "
                clip-rule="nonzero" />
        </clipPath>
        <clipPath id="2948441454">
            <path
                d="M 79.304688 156.835938 L 294.492188 156.835938 L 294.492188 219.859375 L 79.304688 219.859375 Z M 79.304688 156.835938 "
                clip-rule="nonzero" />
        </clipPath>
        <clipPath id="bf3a6e4196">
            <path d="M 220 173 L 247.375 173 L 247.375 234.878906 L 220 234.878906 Z M 220 173 " clip-rule="nonzero" />
        </clipPath>
        <clipPath id="a76f5b01da">
            <path d="M 158 218 L 220 218 L 220 234.878906 L 158 234.878906 Z M 158 218 " clip-rule="nonzero" />
        </clipPath>
        <clipPath id="7f70c620f2">
            <path d="M 131 175 L 160 175 L 160 234.878906 L 131 234.878906 Z M 131 175 " clip-rule="nonzero" />
        </clipPath>
        <clipPath id="23bba0336d">
            <path d="M 127.375 169 L 161 169 L 161 179 L 127.375 179 Z M 127.375 169 " clip-rule="nonzero" />
        </clipPath>
        <clipPath id="a87e1dec37">
            <path d="M 132 140.378906 L 145 140.378906 L 145 166 L 132 166 Z M 132 140.378906 " clip-rule="nonzero" />
        </clipPath>
    </defs>
    <g clip-path="url(#64db3c3261)">
        <path fill="#ffffff"
            d="M 185.453125 334.003906 C 104.640625 334.003906 38.945312 268.3125 38.945312 187.496094 C 38.945312 106.683594 104.699219 40.988281 185.453125 40.988281 C 224.601562 40.988281 261.402344 56.226562 289.066406 83.886719 C 316.726562 111.546875 331.960938 148.351562 331.960938 187.496094 C 331.960938 268.3125 266.269531 334.003906 185.453125 334.003906 Z M 185.453125 50.542969 C 109.914062 50.542969 48.5 111.957031 48.5 187.496094 C 48.5 263.039062 109.914062 324.453125 185.453125 324.453125 C 260.992188 324.453125 322.410156 263.039062 322.410156 187.496094 C 322.410156 150.929688 308.167969 116.53125 282.324219 90.625 C 256.480469 64.722656 222.023438 50.542969 185.453125 50.542969 Z M 185.453125 50.542969 "
            fill-opacity="1" fill-rule="nonzero" />
    </g>
    <g clip-path="url(#1bb33a6d6d)">
        <path fill="#ffffff"
            d="M 188.097656 266.222656 C 144.671875 266.222656 109.371094 230.921875 109.371094 187.496094 C 109.371094 144.070312 144.703125 108.769531 188.097656 108.769531 C 209.132812 108.769531 228.910156 116.957031 243.773438 131.824219 C 258.636719 146.6875 266.824219 166.460938 266.824219 187.496094 C 266.824219 230.921875 231.523438 266.222656 188.097656 266.222656 Z M 188.097656 113.902344 C 147.507812 113.902344 114.503906 146.90625 114.503906 187.496094 C 114.503906 228.089844 147.507812 261.089844 188.097656 261.089844 C 228.691406 261.089844 261.691406 228.089844 261.691406 187.496094 C 261.691406 167.847656 254.039062 149.363281 240.152344 135.445312 C 226.265625 121.523438 207.75 113.902344 188.097656 113.902344 Z M 188.097656 113.902344 "
            fill-opacity="1" fill-rule="nonzero" />
    </g>

    <g fill="#ffffff" fill-opacity="1">
        <g transform="translate(104.763702, 144.063571)">
            <g>
                <path
                    d="M 7.296875 -10.25 L 6.03125 -8.515625 L -5.921875 -11.453125 L 3.375 -4.640625 L 0.9375 -1.296875 L -13.796875 -11.984375 L -10.34375 -16.75 L 0.53125 -13.859375 L -5.609375 -23.265625 L -2.140625 -28.03125 L 12.59375 -17.34375 L 10.171875 -14.015625 L 0.828125 -20.75 Z M 7.296875 -10.25 " />
            </g>
        </g>
    </g>
    <g fill="#ffffff" fill-opacity="1">
        <g transform="translate(120.551773, 123.274486)">
            <g>
                <path
                    d="M -1.359375 -10.515625 C -0.785156 -9.785156 -0.0820312 -9.25 0.75 -8.90625 C 1.59375 -8.570312 2.460938 -8.453125 3.359375 -8.546875 C 4.265625 -8.648438 5.082031 -8.992188 5.8125 -9.578125 C 6.550781 -10.148438 7.070312 -10.859375 7.375 -11.703125 C 7.675781 -12.554688 7.753906 -13.429688 7.609375 -14.328125 C 7.472656 -15.222656 7.117188 -16.035156 6.546875 -16.765625 C 5.953125 -17.515625 5.238281 -18.054688 4.40625 -18.390625 C 3.570312 -18.734375 2.707031 -18.851562 1.8125 -18.75 C 0.925781 -18.644531 0.113281 -18.304688 -0.625 -17.734375 C -1.351562 -17.148438 -1.875 -16.4375 -2.1875 -15.59375 C -2.5 -14.75 -2.585938 -13.878906 -2.453125 -12.984375 C -2.316406 -12.085938 -1.953125 -11.265625 -1.359375 -10.515625 Z M -4.59375 -7.96875 C -5.394531 -8.976562 -5.960938 -10.066406 -6.296875 -11.234375 C -6.628906 -12.410156 -6.734375 -13.601562 -6.609375 -14.8125 C -6.492188 -16.019531 -6.15625 -17.160156 -5.59375 -18.234375 C -5.03125 -19.316406 -4.25 -20.257812 -3.25 -21.0625 C -2.238281 -21.851562 -1.144531 -22.394531 0.03125 -22.6875 C 1.207031 -22.988281 2.394531 -23.050781 3.59375 -22.875 C 4.789062 -22.707031 5.921875 -22.328125 6.984375 -21.734375 C 8.046875 -21.140625 8.976562 -20.335938 9.78125 -19.328125 C 10.570312 -18.328125 11.140625 -17.234375 11.484375 -16.046875 C 11.828125 -14.859375 11.9375 -13.664062 11.8125 -12.46875 C 11.695312 -11.28125 11.359375 -10.144531 10.796875 -9.0625 C 10.234375 -7.988281 9.445312 -7.054688 8.4375 -6.265625 C 7.4375 -5.460938 6.347656 -4.910156 5.171875 -4.609375 C 3.992188 -4.316406 2.804688 -4.25 1.609375 -4.40625 C 0.410156 -4.5625 -0.722656 -4.941406 -1.796875 -5.546875 C -2.867188 -6.160156 -3.800781 -6.96875 -4.59375 -7.96875 Z M -4.59375 -7.96875 " />
            </g>
        </g>
    </g>
    <g fill="#ffffff" fill-opacity="1">
        <g transform="translate(139.806338, 108.729364)">
            <g>
                <path
                    d="M 16.375 -7.203125 L 11.125 -4.890625 L 1.265625 -10.65625 L 4.984375 -2.1875 L 1.1875 -0.515625 L -6.140625 -17.171875 L -2.34375 -18.84375 L 1.265625 -10.65625 L 3.40625 -21.375 L 8 -23.390625 L 5.59375 -12.5625 Z M 16.375 -7.203125 " />
            </g>
        </g>
    </g>
    <g fill="#ffffff" fill-opacity="1">
        <g transform="translate(160.814379, 100.426153)">
            <g>
                <path
                    d="M 1.484375 -19.046875 L 5.640625 -1.328125 L 1.609375 -0.375 L -2.546875 -18.09375 Z M 1.484375 -19.046875 " />
            </g>
        </g>
    </g>
    <g fill="#ffffff" fill-opacity="1">
        <g transform="translate(171.554316, 97.890757)">
            <g>
                <path
                    d="M 0.140625 -14.609375 L -0.109375 -18.234375 L 12.65625 -19.09375 L 12.90625 -15.46875 L 8.59375 -15.1875 L 9.578125 -0.65625 L 5.4375 -0.375 L 4.453125 -14.90625 Z M 0.140625 -14.609375 " />
            </g>
        </g>
    </g>
    <g fill="#ffffff" fill-opacity="1">
        <g transform="translate(189.942948, 96.956746)">
            <g>
                <path
                    d="M 3.921875 -17.828125 L 10.5 -16.921875 C 11.9375 -16.691406 13.066406 -16.242188 13.890625 -15.578125 C 14.722656 -14.921875 15.289062 -14.144531 15.59375 -13.25 C 15.90625 -12.351562 15.992188 -11.441406 15.859375 -10.515625 C 15.710938 -9.597656 15.445312 -8.835938 15.0625 -8.234375 C 14.675781 -7.640625 14.203125 -7.164062 13.640625 -6.8125 C 13.085938 -6.457031 12.492188 -6.195312 11.859375 -6.03125 L 15.765625 2.1875 L 11.25 1.5625 L 7.78125 -5.78125 C 7.519531 -5.800781 7.273438 -5.820312 7.046875 -5.84375 C 6.816406 -5.875 6.617188 -5.898438 6.453125 -5.921875 L 5.53125 0.765625 L 1.421875 0.203125 Z M 6.90625 -9.203125 C 7.394531 -9.140625 7.894531 -9.097656 8.40625 -9.078125 C 8.925781 -9.066406 9.398438 -9.113281 9.828125 -9.21875 C 10.265625 -9.320312 10.632812 -9.507812 10.9375 -9.78125 C 11.238281 -10.0625 11.429688 -10.460938 11.515625 -10.984375 C 11.609375 -11.660156 11.484375 -12.191406 11.140625 -12.578125 C 10.804688 -12.972656 10.320312 -13.28125 9.6875 -13.5 C 9.0625 -13.71875 8.359375 -13.878906 7.578125 -13.984375 Z M 6.90625 -9.203125 " />
            </g>
        </g>
    </g>
    <g fill="#ffffff" fill-opacity="1">
        <g transform="translate(208.70914, 99.629518)">
            <g>
                <path
                    d="M 8.40625 -6.5 C 8.0625 -5.625 7.953125 -4.734375 8.078125 -3.828125 C 8.210938 -2.929688 8.546875 -2.125 9.078125 -1.40625 C 9.617188 -0.6875 10.328125 -0.15625 11.203125 0.1875 C 12.066406 0.53125 12.941406 0.617188 13.828125 0.453125 C 14.710938 0.285156 15.503906 -0.078125 16.203125 -0.640625 C 16.910156 -1.210938 17.4375 -1.9375 17.78125 -2.8125 C 18.125 -3.6875 18.226562 -4.570312 18.09375 -5.46875 C 17.96875 -6.375 17.632812 -7.179688 17.09375 -7.890625 C 16.5625 -8.609375 15.863281 -9.140625 15 -9.484375 C 14.125 -9.828125 13.242188 -9.914062 12.359375 -9.75 C 11.472656 -9.59375 10.675781 -9.226562 9.96875 -8.65625 C 9.269531 -8.09375 8.75 -7.375 8.40625 -6.5 Z M 4.5625 -8 C 5.03125 -9.1875 5.6875 -10.21875 6.53125 -11.09375 C 7.382812 -11.976562 8.359375 -12.675781 9.453125 -13.1875 C 10.554688 -13.695312 11.710938 -13.976562 12.921875 -14.03125 C 14.140625 -14.09375 15.347656 -13.890625 16.546875 -13.421875 C 17.734375 -12.953125 18.75 -12.285156 19.59375 -11.421875 C 20.445312 -10.554688 21.101562 -9.5625 21.5625 -8.4375 C 22.019531 -7.320312 22.257812 -6.148438 22.28125 -4.921875 C 22.3125 -3.703125 22.09375 -2.5 21.625 -1.3125 C 21.15625 -0.113281 20.492188 0.925781 19.640625 1.8125 C 18.785156 2.707031 17.8125 3.40625 16.71875 3.90625 C 15.625 4.40625 14.46875 4.6875 13.25 4.75 C 12.039062 4.8125 10.84375 4.609375 9.65625 4.140625 C 8.457031 3.671875 7.429688 3 6.578125 2.125 C 5.734375 1.257812 5.078125 0.273438 4.609375 -0.828125 C 4.148438 -1.941406 3.910156 -3.113281 3.890625 -4.34375 C 3.867188 -5.582031 4.09375 -6.800781 4.5625 -8 Z M 4.5625 -8 " />
            </g>
        </g>
    </g>
    <g fill="#ffffff" fill-opacity="1">
        <g transform="translate(230.981265, 108.918113)">
            <g>
                <path
                    d="M 14.46875 10.515625 L 9.84375 7.140625 L 9.84375 -4.28125 L 4.40625 3.203125 L 1.046875 0.765625 L 11.75 -13.96875 L 15.109375 -11.53125 L 9.84375 -4.28125 L 20.1875 -7.84375 L 24.25 -4.890625 L 13.671875 -1.5 Z M 14.46875 10.515625 " />
            </g>
        </g>
    </g>
    <g fill="#ffffff" fill-opacity="1">
        <g transform="translate(248.744444, 122.873854)">
            <g>
                <path
                    d="M 17.1875 -8.328125 L 3.984375 4.203125 L 1.140625 1.203125 L 14.34375 -11.328125 Z M 17.1875 -8.328125 " />
            </g>
        </g>
    </g>
    <g fill="#ffffff" fill-opacity="1">
        <g transform="translate(256.367214, 130.82952)">
            <g>
                <path
                    d="M 6.4375 -0.390625 C 6.40625 0.179688 6.441406 0.804688 6.546875 1.484375 C 6.660156 2.171875 6.828125 2.816406 7.046875 3.421875 C 7.265625 4.035156 7.53125 4.5625 7.84375 5 C 8.15625 5.4375 8.503906 5.722656 8.890625 5.859375 C 9.273438 6.003906 9.691406 5.925781 10.140625 5.625 C 10.546875 5.351562 10.800781 4.957031 10.90625 4.4375 C 11.007812 3.925781 11.039062 3.34375 11 2.6875 C 10.96875 2.03125 10.910156 1.335938 10.828125 0.609375 C 10.742188 -0.117188 10.707031 -0.832031 10.71875 -1.53125 C 10.738281 -2.238281 10.863281 -2.882812 11.09375 -3.46875 C 11.332031 -4.0625 11.738281 -4.550781 12.3125 -4.9375 C 12.957031 -5.363281 13.679688 -5.648438 14.484375 -5.796875 C 15.285156 -5.941406 16.09375 -5.898438 16.90625 -5.671875 C 17.726562 -5.441406 18.492188 -5 19.203125 -4.34375 C 19.921875 -3.695312 20.523438 -2.804688 21.015625 -1.671875 C 21.503906 -0.546875 21.816406 0.851562 21.953125 2.53125 L 18.265625 2.96875 C 18.378906 2.082031 18.320312 1.300781 18.09375 0.625 C 17.863281 -0.0390625 17.539062 -0.578125 17.125 -0.984375 C 16.707031 -1.398438 16.273438 -1.671875 15.828125 -1.796875 C 15.390625 -1.921875 15.007812 -1.875 14.6875 -1.65625 C 14.414062 -1.46875 14.269531 -1.140625 14.25 -0.671875 C 14.238281 -0.203125 14.289062 0.359375 14.40625 1.015625 C 14.53125 1.679688 14.644531 2.390625 14.75 3.140625 C 14.863281 3.898438 14.90625 4.65625 14.875 5.40625 C 14.84375 6.164062 14.679688 6.878906 14.390625 7.546875 C 14.097656 8.210938 13.597656 8.785156 12.890625 9.265625 C 12.171875 9.742188 11.34375 10.007812 10.40625 10.0625 C 9.46875 10.125 8.519531 9.96875 7.5625 9.59375 C 6.601562 9.226562 5.726562 8.625 4.9375 7.78125 C 4.144531 6.945312 3.507812 5.867188 3.03125 4.546875 C 2.550781 3.234375 2.332031 1.65625 2.375 -0.1875 Z M 6.4375 -0.390625 " />
            </g>
        </g>
    </g>
    <g fill="#ffffff" fill-opacity="1">
        <g transform="translate(86.833624, 200.600261)">
            <g>
                <path
                    d="M 20.1875 11.921875 L 2.1875 14.609375 L 1.5625 10.5 L 8.5 9.46875 L 7.796875 4.703125 L 0.859375 5.734375 L 0.25 1.640625 L 18.25 -1.046875 L 18.859375 3.046875 L 11.890625 4.09375 L 12.59375 8.859375 L 19.5625 7.8125 Z M 20.1875 11.921875 " />
            </g>
        </g>
    </g>
    <g fill="#ffffff" fill-opacity="1">
        <g transform="translate(90.496075, 222.281115)">
            <g>
                <path
                    d="M 21.4375 4.421875 L 7.359375 18.109375 L 5.6875 13.984375 L 8.546875 11.328125 L 5.9375 4.921875 L 2.0625 5.0625 L 0.375 0.9375 L 20 0.875 Z M 11.390625 8.671875 L 15.515625 4.75 L 9.84375 4.859375 Z M 11.390625 8.671875 " />
            </g>
        </g>
    </g>
    <g fill="#ffffff" fill-opacity="1">
        <g transform="translate(100.970912, 246.413715)">
            <g>
                <path
                    d="M 7.796875 9.90625 L 6.484375 8.1875 L 12.671875 -2.46875 L 3.515625 4.53125 L 0.984375 1.265625 L 15.390625 -9.875 L 18.984375 -5.21875 L 13.140625 4.40625 L 23.921875 1.15625 L 27.515625 5.8125 L 13.109375 16.953125 L 10.59375 13.6875 L 19.703125 6.625 Z M 7.796875 9.90625 " />
            </g>
        </g>
    </g>
    <g fill="#ffffff" fill-opacity="1">
        <g transform="translate(119.349095, 268.328061)">
            <g>
                <path
                    d="M 11 -4.609375 L 11.421875 -4.28125 C 11.847656 -3.945312 12.273438 -3.660156 12.703125 -3.421875 C 13.140625 -3.191406 13.570312 -3.109375 14 -3.171875 C 14.4375 -3.234375 14.867188 -3.539062 15.296875 -4.09375 C 15.742188 -4.664062 15.941406 -5.164062 15.890625 -5.59375 C 15.847656 -6.03125 15.660156 -6.425781 15.328125 -6.78125 C 15.003906 -7.144531 14.628906 -7.492188 14.203125 -7.828125 L 13.78125 -8.15625 Z M 9.296875 -2.421875 L 6.53125 1.125 L 6.953125 1.453125 C 7.265625 1.703125 7.601562 1.945312 7.96875 2.1875 C 8.34375 2.425781 8.71875 2.609375 9.09375 2.734375 C 9.476562 2.859375 9.859375 2.867188 10.234375 2.765625 C 10.609375 2.660156 10.960938 2.398438 11.296875 1.984375 C 11.609375 1.578125 11.742188 1.15625 11.703125 0.71875 C 11.660156 0.289062 11.507812 -0.101562 11.25 -0.46875 C 11 -0.84375 10.722656 -1.171875 10.421875 -1.453125 C 10.117188 -1.742188 9.882812 -1.957031 9.71875 -2.09375 Z M 15.53125 0.40625 C 15.75 1.15625 15.789062 1.914062 15.65625 2.6875 C 15.53125 3.46875 15.1875 4.21875 14.625 4.9375 C 13.9375 5.820312 13.140625 6.394531 12.234375 6.65625 C 11.328125 6.914062 10.390625 6.910156 9.421875 6.640625 C 8.453125 6.367188 7.492188 5.863281 6.546875 5.125 L 1.171875 0.921875 L 12.328125 -13.34375 L 17.703125 -9.140625 C 19.109375 -8.046875 19.929688 -6.84375 20.171875 -5.53125 C 20.410156 -4.226562 20.003906 -2.90625 18.953125 -1.5625 C 18.492188 -0.96875 17.96875 -0.503906 17.375 -0.171875 C 16.78125 0.148438 16.164062 0.34375 15.53125 0.40625 Z M 15.53125 0.40625 " />
            </g>
        </g>
    </g>
    <g fill="#ffffff" fill-opacity="1">
        <g transform="translate(136.598038, 281.144693)">
            <g>
                <path
                    d="M 22.078125 -9.65625 L 17.03125 0.9375 C 16.0625 2.96875 14.78125 4.238281 13.1875 4.75 C 11.601562 5.257812 9.769531 5.019531 7.6875 4.03125 C 5.59375 3.03125 4.242188 1.753906 3.640625 0.203125 C 3.035156 -1.347656 3.21875 -3.140625 4.1875 -5.171875 L 9.234375 -15.765625 L 12.984375 -13.984375 L 8.453125 -4.46875 C 8.015625 -3.5625 7.765625 -2.800781 7.703125 -2.1875 C 7.648438 -1.582031 7.769531 -1.082031 8.0625 -0.6875 C 8.363281 -0.289062 8.820312 0.0507812 9.4375 0.34375 C 10.050781 0.632812 10.601562 0.769531 11.09375 0.75 C 11.582031 0.726562 12.046875 0.503906 12.484375 0.078125 C 12.921875 -0.347656 13.359375 -1.015625 13.796875 -1.921875 L 18.328125 -11.4375 Z M 22.078125 -9.65625 " />
            </g>
        </g>
    </g>
    <g fill="#ffffff" fill-opacity="1">
        <g transform="translate(157.414282, 290.312377)">
            <g>
                <path
                    d="M 5.515625 -17.40625 L 11.984375 -15.90625 C 13.390625 -15.550781 14.476562 -15.003906 15.25 -14.265625 C 16.019531 -13.535156 16.515625 -12.707031 16.734375 -11.78125 C 16.953125 -10.863281 16.957031 -9.953125 16.75 -9.046875 C 16.519531 -8.148438 16.1875 -7.421875 15.75 -6.859375 C 15.3125 -6.296875 14.796875 -5.863281 14.203125 -5.5625 C 13.609375 -5.257812 12.992188 -5.050781 12.359375 -4.9375 L 15.515625 3.59375 L 11.0625 2.5625 L 8.265625 -5.0625 C 8.015625 -5.101562 7.773438 -5.144531 7.546875 -5.1875 C 7.316406 -5.238281 7.117188 -5.28125 6.953125 -5.3125 L 5.4375 1.265625 L 1.40625 0.328125 Z M 7.703125 -8.53125 C 8.191406 -8.4375 8.691406 -8.359375 9.203125 -8.296875 C 9.710938 -8.234375 10.1875 -8.226562 10.625 -8.28125 C 11.070312 -8.34375 11.457031 -8.5 11.78125 -8.75 C 12.113281 -9.007812 12.34375 -9.394531 12.46875 -9.90625 C 12.625 -10.570312 12.550781 -11.113281 12.25 -11.53125 C 11.945312 -11.957031 11.488281 -12.300781 10.875 -12.5625 C 10.257812 -12.832031 9.566406 -13.054688 8.796875 -13.234375 Z M 7.703125 -8.53125 " />
            </g>
        </g>
    </g>
    <g fill="#ffffff" fill-opacity="1">
        <g transform="translate(178.172543, 294.712265)">
            <g>
                <path
                    d="M 18.5625 -10.25 L 18.59375 -0.0625 L 16.453125 -0.796875 L 16.5625 -2.125 C 15.800781 -1.28125 14.878906 -0.664062 13.796875 -0.28125 C 12.710938 0.101562 11.507812 0.296875 10.1875 0.296875 C 8.96875 0.296875 7.820312 0.0546875 6.75 -0.421875 C 5.675781 -0.898438 4.726562 -1.570312 3.90625 -2.4375 C 3.082031 -3.3125 2.441406 -4.3125 1.984375 -5.4375 C 1.535156 -6.570312 1.304688 -7.789062 1.296875 -9.09375 C 1.296875 -10.394531 1.507812 -11.617188 1.9375 -12.765625 C 2.375 -13.910156 2.988281 -14.914062 3.78125 -15.78125 C 4.570312 -16.65625 5.507812 -17.335938 6.59375 -17.828125 C 7.675781 -18.316406 8.851562 -18.5625 10.125 -18.5625 C 11.726562 -18.570312 13.101562 -18.296875 14.25 -17.734375 C 15.394531 -17.179688 16.363281 -16.429688 17.15625 -15.484375 L 14.453125 -12.484375 C 13.921875 -13.335938 13.3125 -13.9375 12.625 -14.28125 C 11.945312 -14.632812 11.203125 -14.8125 10.390625 -14.8125 C 9.535156 -14.8125 8.757812 -14.554688 8.0625 -14.046875 C 7.363281 -13.535156 6.804688 -12.847656 6.390625 -11.984375 C 5.972656 -11.117188 5.765625 -10.160156 5.765625 -9.109375 C 5.765625 -8.078125 5.976562 -7.140625 6.40625 -6.296875 C 6.832031 -5.453125 7.394531 -4.773438 8.09375 -4.265625 C 8.789062 -3.765625 9.566406 -3.515625 10.421875 -3.515625 C 11.078125 -3.515625 11.707031 -3.648438 12.3125 -3.921875 C 12.914062 -4.203125 13.410156 -4.609375 13.796875 -5.140625 C 14.179688 -5.671875 14.375 -6.304688 14.375 -7.046875 L 10.625 -7.03125 L 9.859375 -10.21875 Z M 18.5625 -10.25 " />
            </g>
        </g>
    </g>
    <g fill="#ffffff" fill-opacity="1">
        <g transform="translate(203.620257, 293.809368)">
            <g>
                <path
                    d="M 10.9375 -21.453125 L 13.765625 -10.0625 C 14.296875 -7.875 14.109375 -6.082031 13.203125 -4.6875 C 12.304688 -3.300781 10.738281 -2.328125 8.5 -1.765625 C 6.238281 -1.210938 4.382812 -1.34375 2.9375 -2.15625 C 1.488281 -2.96875 0.5 -4.46875 -0.03125 -6.65625 L -2.859375 -18.046875 L 1.171875 -19.046875 L 3.703125 -8.828125 C 3.941406 -7.835938 4.226562 -7.085938 4.5625 -6.578125 C 4.90625 -6.078125 5.316406 -5.769531 5.796875 -5.65625 C 6.285156 -5.539062 6.859375 -5.5625 7.515625 -5.71875 C 8.171875 -5.882812 8.679688 -6.128906 9.046875 -6.453125 C 9.410156 -6.785156 9.625 -7.253906 9.6875 -7.859375 C 9.757812 -8.460938 9.675781 -9.257812 9.4375 -10.25 L 6.90625 -20.46875 Z M 10.9375 -21.453125 " />
            </g>
        </g>
    </g>
    <g fill="#ffffff" fill-opacity="1">
        <g transform="translate(225.441439, 287.641066)">
            <g>
                <path
                    d="M 2.90625 -21.59375 L 4.484375 -18.3125 L -1.15625 -15.609375 L 0.421875 -12.34375 L 5.828125 -14.9375 L 7.40625 -11.65625 L 2 -9.0625 L 3.578125 -5.765625 L 9.21875 -8.46875 L 10.796875 -5.1875 L 1.40625 -0.671875 L -6.484375 -17.078125 Z M 2.90625 -21.59375 " />
            </g>
        </g>
    </g>
    <g fill="#ffffff" fill-opacity="1">
        <g transform="translate(242.265554, 279.091427)">
            <g>
                <path
                    d="M -0.765625 -6.390625 C -0.179688 -6.410156 0.441406 -6.492188 1.109375 -6.640625 C 1.773438 -6.785156 2.410156 -6.984375 3.015625 -7.234375 C 3.617188 -7.484375 4.128906 -7.773438 4.546875 -8.109375 C 4.960938 -8.441406 5.226562 -8.804688 5.34375 -9.203125 C 5.46875 -9.609375 5.367188 -10.023438 5.046875 -10.453125 C 4.753906 -10.835938 4.347656 -11.066406 3.828125 -11.140625 C 3.304688 -11.210938 2.71875 -11.210938 2.0625 -11.140625 C 1.40625 -11.066406 0.71875 -10.96875 0 -10.84375 C -0.71875 -10.71875 -1.429688 -10.644531 -2.140625 -10.625 C -2.847656 -10.601562 -3.5 -10.691406 -4.09375 -10.890625 C -4.695312 -11.085938 -5.207031 -11.460938 -5.625 -12.015625 C -6.09375 -12.640625 -6.421875 -13.347656 -6.609375 -14.140625 C -6.796875 -14.929688 -6.796875 -15.738281 -6.609375 -16.5625 C -6.429688 -17.394531 -6.035156 -18.1875 -5.421875 -18.9375 C -4.816406 -19.6875 -3.960938 -20.335938 -2.859375 -20.890625 C -1.753906 -21.441406 -0.367188 -21.832031 1.296875 -22.0625 L 1.953125 -18.40625 C 1.035156 -18.46875 0.253906 -18.363281 -0.390625 -18.09375 C -1.046875 -17.820312 -1.566406 -17.46875 -1.953125 -17.03125 C -2.347656 -16.601562 -2.59375 -16.160156 -2.6875 -15.703125 C -2.78125 -15.253906 -2.710938 -14.878906 -2.484375 -14.578125 C -2.273438 -14.304688 -1.929688 -14.175781 -1.453125 -14.1875 C -0.984375 -14.207031 -0.425781 -14.289062 0.21875 -14.4375 C 0.863281 -14.59375 1.5625 -14.742188 2.3125 -14.890625 C 3.0625 -15.046875 3.8125 -15.128906 4.5625 -15.140625 C 5.320312 -15.160156 6.039062 -15.039062 6.71875 -14.78125 C 7.40625 -14.53125 8.003906 -14.0625 8.515625 -13.375 C 9.046875 -12.6875 9.363281 -11.878906 9.46875 -10.953125 C 9.582031 -10.023438 9.476562 -9.070312 9.15625 -8.09375 C 8.84375 -7.113281 8.289062 -6.203125 7.5 -5.359375 C 6.707031 -4.523438 5.664062 -3.832031 4.375 -3.28125 C 3.082031 -2.726562 1.519531 -2.421875 -0.3125 -2.359375 Z M -0.765625 -6.390625 " />
            </g>
        </g>
    </g>
    <g fill="#ffffff" fill-opacity="1">
        <g transform="translate(258.886245, 265.700764)">
            <g>
                <path
                    d="M -5.703125 -21.046875 L -2.96875 -18.625 L -7.125 -13.921875 L -4.40625 -11.53125 L -0.421875 -16.03125 L 2.296875 -13.609375 L -1.6875 -9.109375 L 1.046875 -6.6875 L 5.203125 -11.390625 L 7.9375 -8.984375 L 1.03125 -1.171875 L -12.609375 -13.234375 Z M -5.703125 -21.046875 " />
            </g>
        </g>
    </g>
    <g fill="#ffffff" fill-opacity="1">
        <g transform="translate(271.062232, 251.296302)">
            <g>
                <path
                    d="M -15.015625 -10.40625 L -11.671875 -16.140625 C -10.910156 -17.378906 -10.066406 -18.253906 -9.140625 -18.765625 C -8.222656 -19.285156 -7.289062 -19.515625 -6.34375 -19.453125 C -5.394531 -19.398438 -4.519531 -19.140625 -3.71875 -18.671875 C -2.925781 -18.179688 -2.328125 -17.644531 -1.921875 -17.0625 C -1.515625 -16.476562 -1.25 -15.859375 -1.125 -15.203125 C -1.007812 -14.554688 -1 -13.910156 -1.09375 -13.265625 L 8 -13.765625 L 5.703125 -9.8125 L -2.40625 -9.390625 C -2.507812 -9.160156 -2.613281 -8.941406 -2.71875 -8.734375 C -2.832031 -8.535156 -2.9375 -8.363281 -3.03125 -8.21875 L 2.796875 -4.828125 L 0.71875 -1.25 Z M -5.90625 -9.890625 C -5.65625 -10.316406 -5.421875 -10.765625 -5.203125 -11.234375 C -4.992188 -11.703125 -4.851562 -12.15625 -4.78125 -12.59375 C -4.71875 -13.039062 -4.757812 -13.457031 -4.90625 -13.84375 C -5.050781 -14.226562 -5.347656 -14.554688 -5.796875 -14.828125 C -6.378906 -15.171875 -6.914062 -15.257812 -7.40625 -15.09375 C -7.90625 -14.925781 -8.375 -14.585938 -8.8125 -14.078125 C -9.25 -13.578125 -9.671875 -12.988281 -10.078125 -12.3125 Z M -5.90625 -9.890625 " />
            </g>
        </g>
    </g>
    <g fill="#ffffff" fill-opacity="1">
        <g transform="translate(280.861551, 232.919009)">
            <g>
                <path
                    d="M -14.984375 -11.84375 L 2.046875 -5.421875 L 0.578125 -1.546875 L -16.453125 -7.96875 Z M -14.984375 -11.84375 " />
            </g>
        </g>
    </g>
    <g fill="#ffffff" fill-opacity="1">
        <g transform="translate(285.490497, 220.976347)">
            <g>
                <path
                    d="M -15.875 -15.078125 L 3.296875 -19.265625 L 2.546875 -14.875 L -1.28125 -14.125 L -2.4375 -7.3125 L 0.921875 -5.390625 L 0.171875 -1 L -16.53125 -11.296875 Z M -5.09375 -13.375 L -10.65625 -12.21875 L -5.78125 -9.3125 Z M -5.09375 -13.375 " />
            </g>
        </g>
    </g>
    <g clip-path="url(#bf3a6e4196)">
        <path fill="#ffffff"
            d="M 238.933594 234.816406 C 238.765625 234.816406 238.574219 234.792969 238.40625 234.722656 C 235.265625 233.5625 228.019531 232.671875 221.542969 232.671875 C 220.703125 232.671875 220.007812 231.996094 220.007812 231.128906 C 220.007812 230.285156 220.679688 229.585938 221.542969 229.585938 C 226.652344 229.585938 233.367188 230.164062 237.636719 231.25 L 244.234375 177.046875 L 240.996094 177.046875 C 239.558594 182.976562 231.402344 187.265625 221.542969 187.265625 C 220.703125 187.265625 220.007812 186.59375 220.007812 185.722656 C 220.007812 184.855469 220.679688 184.183594 221.542969 184.183594 C 229.769531 184.183594 237.015625 180.710938 238.046875 176.253906 C 238.359375 174.902344 239.535156 173.964844 240.902344 173.964844 L 244.355469 173.964844 C 245.195312 173.964844 246.007812 174.324219 246.5625 174.953125 C 247.113281 175.578125 247.375 176.421875 247.28125 177.265625 L 240.445312 233.417969 C 240.398438 233.878906 240.132812 234.285156 239.726562 234.550781 C 239.484375 234.722656 239.222656 234.816406 238.933594 234.816406 Z M 238.933594 234.816406 "
            fill-opacity="1" fill-rule="nonzero" />
    </g>
    <path fill="#ffffff"
        d="M 216.769531 174.132812 C 215.929688 174.132812 215.234375 173.457031 215.234375 172.589844 L 215.234375 166.035156 L 212.382812 166.035156 L 212.382812 166.347656 C 212.382812 167.191406 211.710938 167.890625 210.847656 167.890625 C 210.007812 167.890625 209.3125 167.214844 209.3125 166.347656 L 209.3125 164.515625 C 209.3125 163.671875 209.984375 162.972656 210.847656 162.972656 L 216.746094 162.972656 C 217.585938 162.972656 218.28125 163.648438 218.28125 164.515625 L 218.28125 172.613281 C 218.304688 173.457031 217.609375 174.132812 216.769531 174.132812 Z M 216.769531 174.132812 "
        fill-opacity="1" fill-rule="nonzero" />
    <path fill="#ffffff"
        d="M 226.292969 167.867188 C 226.101562 167.867188 225.886719 167.816406 225.695312 167.746094 C 224.925781 167.40625 224.566406 166.515625 224.902344 165.746094 L 228.210938 158.007812 L 225.574219 156.875 L 223.03125 162.804688 C 222.695312 163.574219 221.808594 163.9375 221.039062 163.601562 C 220.273438 163.261719 219.914062 162.371094 220.25 161.601562 L 223.390625 154.273438 C 223.726562 153.5 224.613281 153.140625 225.382812 153.476562 L 230.800781 155.816406 C 231.164062 155.984375 231.472656 156.273438 231.617188 156.660156 C 231.761719 157.042969 231.761719 157.453125 231.59375 157.839844 L 227.683594 166.972656 C 227.445312 167.527344 226.894531 167.867188 226.292969 167.867188 Z M 226.292969 167.867188 "
        fill-opacity="1" fill-rule="nonzero" />
    <path fill="#ffffff"
        d="M 228.957031 186.375 C 228.1875 186.375 227.539062 185.796875 227.445312 185.027344 L 226.148438 173.503906 L 223.296875 173.820312 L 224.0625 180.734375 C 224.160156 181.578125 223.558594 182.328125 222.71875 182.421875 C 221.878906 182.519531 221.136719 181.917969 221.039062 181.074219 L 220.082031 172.636719 C 220.03125 172.226562 220.152344 171.816406 220.394531 171.503906 C 220.65625 171.191406 221.015625 170.976562 221.425781 170.925781 L 227.300781 170.25 C 227.707031 170.203125 228.117188 170.324219 228.429688 170.566406 C 228.738281 170.832031 228.957031 171.191406 229.003906 171.601562 L 230.464844 184.640625 C 230.5625 185.484375 229.964844 186.230469 229.125 186.328125 C 229.074219 186.375 229.027344 186.375 228.957031 186.375 Z M 228.957031 186.375 "
        fill-opacity="1" fill-rule="nonzero" />
    <path fill="#ffffff"
        d="M 232.21875 178.929688 C 232.097656 178.929688 231.953125 178.902344 231.832031 178.878906 C 231.019531 178.664062 230.539062 177.820312 230.753906 177 L 233.800781 165.359375 C 234.015625 164.539062 234.855469 164.058594 235.671875 164.273438 L 241.378906 165.792969 C 241.765625 165.890625 242.101562 166.15625 242.316406 166.492188 C 242.507812 166.855469 242.578125 167.261719 242.484375 167.648438 L 241.5 171.410156 C 241.285156 172.226562 240.445312 172.710938 239.628906 172.492188 C 238.8125 172.277344 238.335938 171.433594 238.550781 170.613281 L 239.148438 168.324219 L 236.390625 167.601562 L 233.730469 177.746094 C 233.511719 178.46875 232.890625 178.929688 232.21875 178.929688 Z M 232.21875 178.929688 "
        fill-opacity="1" fill-rule="nonzero" />
    <path fill="#ffffff"
        d="M 245.363281 171.671875 C 244.523438 171.671875 243.828125 171 243.828125 170.132812 L 243.828125 159.9375 L 240.972656 159.9375 L 240.972656 161.574219 C 240.972656 162.417969 240.300781 163.117188 239.4375 163.117188 C 238.597656 163.117188 237.902344 162.441406 237.902344 161.574219 L 237.902344 158.394531 C 237.902344 157.550781 238.574219 156.851562 239.4375 156.851562 L 245.335938 156.851562 C 246.175781 156.851562 246.871094 157.527344 246.871094 158.394531 L 246.871094 170.132812 C 246.898438 171 246.203125 171.671875 245.363281 171.671875 Z M 245.363281 171.671875 "
        fill-opacity="1" fill-rule="nonzero" />
    <path fill="#ffffff"
        d="M 214.707031 160.828125 C 213.867188 160.828125 213.171875 160.152344 213.171875 159.285156 L 213.171875 156.898438 C 213.171875 156.054688 213.84375 155.359375 214.707031 155.359375 L 217.660156 155.359375 C 218.496094 155.359375 219.195312 156.03125 219.195312 156.898438 C 219.195312 157.742188 218.523438 158.441406 217.660156 158.441406 L 216.242188 158.441406 L 216.242188 159.308594 C 216.242188 160.128906 215.546875 160.828125 214.707031 160.828125 Z M 214.707031 160.828125 "
        fill-opacity="1" fill-rule="nonzero" />
    <path fill="#ffffff"
        d="M 217.660156 196.425781 L 159.542969 196.425781 C 158.703125 196.425781 158.007812 195.75 158.007812 194.882812 L 158.007812 187.871094 C 158.007812 176.179688 167.457031 166.683594 179.089844 166.683594 L 198.085938 166.683594 C 209.71875 166.683594 219.167969 176.179688 219.167969 187.871094 L 219.167969 194.882812 C 219.167969 195.726562 218.496094 196.425781 217.660156 196.425781 Z M 161.078125 193.339844 L 216.125 193.339844 L 216.125 187.871094 C 216.125 177.890625 208.039062 169.746094 198.085938 169.746094 L 179.089844 169.746094 C 169.160156 169.746094 161.050781 177.867188 161.050781 187.871094 L 161.050781 193.339844 Z M 161.078125 193.339844 "
        fill-opacity="1" fill-rule="nonzero" />
    <g clip-path="url(#a76f5b01da)">
        <path fill="#ffffff"
            d="M 198.109375 234.816406 L 179.113281 234.816406 C 168.679688 234.816406 158.03125 233.128906 158.03125 220.621094 L 158.03125 219.828125 C 158.03125 218.984375 158.703125 218.285156 159.566406 218.285156 L 172.542969 218.285156 C 173.382812 218.285156 174.078125 218.960938 174.078125 219.828125 C 174.078125 220.671875 173.40625 221.367188 172.542969 221.367188 L 161.125 221.367188 C 161.414062 228.914062 166.402344 231.757812 179.136719 231.757812 L 198.132812 231.757812 C 210.871094 231.757812 215.859375 228.9375 216.148438 221.367188 L 207.464844 221.367188 C 206.625 221.367188 205.929688 220.695312 205.929688 219.828125 C 205.929688 218.984375 206.601562 218.285156 207.464844 218.285156 L 217.683594 218.285156 C 218.523438 218.285156 219.21875 218.960938 219.21875 219.828125 L 219.21875 220.621094 C 219.167969 233.128906 208.519531 234.816406 198.109375 234.816406 Z M 198.109375 234.816406 "
            fill-opacity="1" fill-rule="nonzero" />
    </g>
    <path fill="#ffffff"
        d="M 211.589844 201.824219 C 210.75 201.824219 210.054688 201.148438 210.054688 200.28125 L 210.054688 196.402344 L 167.121094 196.402344 L 167.121094 200.28125 C 167.121094 201.125 166.449219 201.824219 165.585938 201.824219 C 164.746094 201.824219 164.050781 201.148438 164.050781 200.28125 L 164.050781 194.859375 C 164.050781 194.015625 164.722656 193.316406 165.585938 193.316406 L 211.589844 193.316406 C 212.429688 193.316406 213.125 193.992188 213.125 194.859375 L 213.125 200.28125 C 213.125 201.148438 212.429688 201.824219 211.589844 201.824219 Z M 211.589844 201.824219 "
        fill-opacity="1" fill-rule="nonzero" />
    <path fill="#ffffff"
        d="M 196.765625 201.824219 L 186.980469 201.824219 C 186.140625 201.824219 185.445312 201.148438 185.445312 200.28125 C 185.445312 199.4375 186.117188 198.738281 186.980469 198.738281 L 196.765625 198.738281 C 197.605469 198.738281 198.300781 199.414062 198.300781 200.28125 C 198.277344 201.148438 197.605469 201.824219 196.765625 201.824219 Z M 196.765625 201.824219 "
        fill-opacity="1" fill-rule="nonzero" />
    <path fill="#ffffff"
        d="M 192.953125 208.378906 L 162.972656 208.378906 C 160.332031 208.378906 158.175781 206.210938 158.175781 203.558594 C 158.175781 200.90625 160.332031 198.738281 162.972656 198.738281 L 177.050781 198.738281 C 177.890625 198.738281 178.585938 199.414062 178.585938 200.28125 C 178.585938 201.125 177.914062 201.824219 177.050781 201.824219 L 162.972656 201.824219 C 162.011719 201.824219 161.21875 202.617188 161.21875 203.582031 C 161.21875 204.546875 162.011719 205.34375 162.972656 205.34375 L 192.953125 205.34375 C 193.792969 205.34375 194.488281 206.015625 194.488281 206.882812 C 194.488281 207.703125 193.792969 208.378906 192.953125 208.378906 Z M 192.953125 208.378906 "
        fill-opacity="1" fill-rule="nonzero" />
    <path fill="#ffffff"
        d="M 214.203125 208.378906 L 207.199219 208.378906 C 206.359375 208.378906 205.664062 207.703125 205.664062 206.835938 C 205.664062 205.992188 206.335938 205.292969 207.199219 205.292969 L 214.203125 205.292969 C 215.164062 205.292969 215.957031 204.5 215.957031 203.535156 C 215.957031 202.570312 215.164062 201.773438 214.203125 201.773438 L 203.050781 201.773438 C 202.210938 201.773438 201.515625 201.101562 201.515625 200.234375 C 201.515625 199.390625 202.1875 198.691406 203.050781 198.691406 L 214.203125 198.691406 C 216.84375 198.691406 219 200.859375 219 203.511719 C 219 206.234375 216.867188 208.378906 214.203125 208.378906 Z M 214.203125 208.378906 "
        fill-opacity="1" fill-rule="nonzero" />
    <path fill="#ffffff"
        d="M 211.589844 214.164062 L 165.609375 214.164062 C 164.769531 214.164062 164.074219 213.488281 164.074219 212.621094 L 164.074219 206.859375 C 164.074219 206.015625 164.746094 205.316406 165.609375 205.316406 L 194.871094 205.316406 C 195.710938 205.316406 196.40625 205.992188 196.40625 206.859375 C 196.40625 207.703125 195.734375 208.402344 194.871094 208.402344 L 167.121094 208.402344 L 167.121094 211.101562 L 210.078125 211.101562 L 210.078125 208.402344 L 204.632812 208.402344 C 203.792969 208.402344 203.097656 207.726562 203.097656 206.859375 C 203.097656 206.015625 203.769531 205.316406 204.632812 205.316406 L 211.613281 205.316406 C 212.453125 205.316406 213.148438 205.992188 213.148438 206.859375 L 213.148438 212.621094 C 213.125 213.464844 212.429688 214.164062 211.589844 214.164062 Z M 211.589844 214.164062 "
        fill-opacity="1" fill-rule="nonzero" />
    <path fill="#ffffff"
        d="M 200.027344 205.535156 C 199.597656 205.535156 199.164062 205.34375 198.878906 205.027344 L 195.617188 201.316406 C 195.0625 200.691406 195.113281 199.726562 195.757812 199.148438 C 196.382812 198.59375 197.34375 198.640625 197.917969 199.292969 L 200.003906 201.65625 L 201.925781 199.339844 C 202.453125 198.691406 203.410156 198.59375 204.058594 199.148438 C 204.707031 199.679688 204.800781 200.644531 204.25 201.292969 L 201.203125 205.003906 C 200.917969 205.34375 200.507812 205.558594 200.054688 205.558594 C 200.027344 205.535156 200.027344 205.535156 200.027344 205.535156 Z M 200.027344 205.535156 "
        fill-opacity="1" fill-rule="nonzero" />
    <path fill="#ffffff"
        d="M 186.046875 184.039062 C 185.207031 184.039062 184.511719 183.363281 184.511719 182.496094 L 184.511719 180.035156 C 184.511719 179.191406 185.183594 178.496094 186.046875 178.496094 C 186.886719 178.496094 187.582031 179.167969 187.582031 180.035156 L 187.582031 182.496094 C 187.582031 183.363281 186.886719 184.039062 186.046875 184.039062 Z M 186.046875 184.039062 "
        fill-opacity="1" fill-rule="nonzero" />
    <path fill="#ffffff"
        d="M 194.320312 175.914062 C 194.128906 175.914062 193.9375 175.890625 193.746094 175.796875 L 191.609375 174.925781 C 190.820312 174.613281 190.457031 173.722656 190.769531 172.925781 C 191.082031 172.132812 191.96875 171.769531 192.761719 172.082031 L 194.894531 172.949219 C 195.6875 173.265625 196.046875 174.15625 195.734375 174.953125 C 195.496094 175.554688 194.921875 175.914062 194.320312 175.914062 Z M 194.320312 175.914062 "
        fill-opacity="1" fill-rule="nonzero" />
    <path fill="#ffffff"
        d="M 168.703125 186.59375 C 168.367188 186.59375 168.03125 186.472656 167.769531 186.253906 L 167.214844 185.820312 C 166.570312 185.289062 166.449219 184.328125 166.976562 183.675781 C 167.503906 183.023438 168.464844 182.90625 169.113281 183.433594 L 169.664062 183.867188 C 170.3125 184.398438 170.429688 185.363281 169.902344 186.011719 C 169.589844 186.398438 169.136719 186.59375 168.703125 186.59375 Z M 168.703125 186.59375 "
        fill-opacity="1" fill-rule="nonzero" />
    <path fill="#ffffff"
        d="M 212.835938 190.425781 C 212.453125 190.425781 212.046875 190.28125 211.757812 189.964844 L 210.03125 188.230469 C 209.429688 187.628906 209.429688 186.664062 210.03125 186.0625 C 210.628906 185.460938 211.589844 185.460938 212.191406 186.0625 L 213.917969 187.796875 C 214.515625 188.398438 214.515625 189.363281 213.917969 189.964844 C 213.605469 190.28125 213.222656 190.425781 212.835938 190.425781 Z M 212.835938 190.425781 "
        fill-opacity="1" fill-rule="nonzero" />
    <path fill="#ffffff"
        d="M 203.074219 182.132812 C 202.523438 182.132812 201.996094 181.84375 201.730469 181.3125 C 201.347656 180.566406 201.636719 179.652344 202.378906 179.242188 L 204.417969 178.15625 C 205.160156 177.769531 206.074219 178.058594 206.480469 178.808594 C 206.863281 179.554688 206.578125 180.46875 205.832031 180.878906 L 203.792969 181.964844 C 203.554688 182.0625 203.316406 182.132812 203.074219 182.132812 Z M 203.074219 182.132812 "
        fill-opacity="1" fill-rule="nonzero" />
    <path fill="#ffffff"
        d="M 197.320312 190.519531 C 196.984375 190.519531 196.648438 190.398438 196.382812 190.183594 L 195.832031 189.75 C 195.183594 189.21875 195.0625 188.253906 195.589844 187.605469 C 196.121094 186.953125 197.078125 186.832031 197.726562 187.363281 L 198.277344 187.796875 C 198.925781 188.328125 199.046875 189.292969 198.519531 189.941406 C 198.207031 190.328125 197.773438 190.519531 197.320312 190.519531 Z M 197.320312 190.519531 "
        fill-opacity="1" fill-rule="nonzero" />
    <path fill="#ffffff"
        d="M 173.550781 177.554688 C 172.996094 177.554688 172.46875 177.265625 172.207031 176.734375 C 171.820312 175.988281 172.109375 175.070312 172.851562 174.664062 L 174.890625 173.578125 C 175.636719 173.191406 176.546875 173.480469 176.953125 174.226562 C 177.339844 174.976562 177.050781 175.890625 176.308594 176.300781 L 174.269531 177.386719 C 174.050781 177.480469 173.789062 177.554688 173.550781 177.554688 Z M 173.550781 177.554688 "
        fill-opacity="1" fill-rule="nonzero" />
    <path fill="#ffffff"
        d="M 174.890625 190.882812 C 174.125 190.882812 173.476562 190.304688 173.382812 189.53125 C 173.285156 188.6875 173.882812 187.941406 174.722656 187.84375 L 175.417969 187.773438 C 176.257812 187.675781 177.003906 188.277344 177.097656 189.121094 C 177.195312 189.964844 176.59375 190.714844 175.753906 190.808594 L 175.058594 190.882812 C 175.011719 190.882812 174.964844 190.882812 174.890625 190.882812 Z M 174.890625 190.882812 "
        fill-opacity="1" fill-rule="nonzero" />
    <path fill="#ffffff"
        d="M 212.765625 221.367188 L 179.785156 221.367188 C 178.945312 221.367188 178.25 220.695312 178.25 219.828125 C 178.25 218.984375 178.921875 218.285156 179.785156 218.285156 L 212.765625 218.285156 C 213.894531 218.285156 214.828125 217.34375 214.828125 216.210938 C 214.828125 215.078125 213.894531 214.140625 212.765625 214.140625 L 164.433594 214.140625 C 163.308594 214.140625 162.371094 215.078125 162.371094 216.210938 C 162.371094 217.34375 163.308594 218.285156 164.433594 218.285156 L 170.167969 218.285156 C 171.007812 218.285156 171.703125 218.960938 171.703125 219.828125 C 171.703125 220.671875 171.03125 221.367188 170.167969 221.367188 L 164.433594 221.367188 C 161.628906 221.367188 159.324219 219.054688 159.324219 216.234375 C 159.324219 213.414062 161.628906 211.101562 164.433594 211.101562 L 212.765625 211.101562 C 215.570312 211.101562 217.875 213.414062 217.875 216.234375 C 217.875 219.054688 215.570312 221.367188 212.765625 221.367188 Z M 212.765625 221.367188 "
        fill-opacity="1" fill-rule="nonzero" />
    <g clip-path="url(#7f70c620f2)">
        <path fill="#ffffff"
            d="M 157.886719 234.816406 L 136.804688 234.816406 C 136.011719 234.816406 135.339844 234.191406 135.292969 233.394531 L 131.261719 177.363281 C 131.238281 176.925781 131.382812 176.519531 131.671875 176.203125 C 131.957031 175.890625 132.367188 175.722656 132.796875 175.722656 L 154.601562 175.722656 C 155.441406 175.722656 156.136719 176.398438 156.136719 177.265625 C 156.136719 178.132812 155.464844 178.808594 154.601562 178.808594 L 134.453125 178.808594 L 138.242188 231.757812 L 157.910156 231.757812 C 158.75 231.757812 159.445312 232.429688 159.445312 233.296875 C 159.398438 234.117188 158.726562 234.816406 157.886719 234.816406 Z M 157.886719 234.816406 "
            fill-opacity="1" fill-rule="nonzero" />
    </g>
    <g clip-path="url(#23bba0336d)">
        <path fill="#ffffff"
            d="M 153.664062 178.785156 L 128.910156 178.785156 C 128.070312 178.785156 127.375 178.109375 127.375 177.242188 L 127.375 170.613281 C 127.375 169.769531 128.046875 169.070312 128.910156 169.070312 L 159.15625 169.070312 C 159.996094 169.070312 160.691406 169.746094 160.691406 170.613281 C 160.691406 171.457031 160.019531 172.15625 159.15625 172.15625 L 130.421875 172.15625 L 130.421875 175.722656 L 153.664062 175.722656 C 154.503906 175.722656 155.199219 176.398438 155.199219 177.265625 C 155.199219 178.132812 154.503906 178.785156 153.664062 178.785156 Z M 153.664062 178.785156 "
            fill-opacity="1" fill-rule="nonzero" />
    </g>
    <path fill="#ffffff"
        d="M 158.628906 172.15625 L 134.523438 172.15625 C 133.683594 172.15625 132.988281 171.480469 132.988281 170.613281 L 132.988281 164.058594 C 132.988281 163.214844 133.660156 162.515625 134.523438 162.515625 L 171.269531 162.515625 C 172.109375 162.515625 172.804688 163.191406 172.804688 164.058594 C 172.804688 164.902344 172.132812 165.601562 171.269531 165.601562 L 136.058594 165.601562 L 136.058594 169.09375 L 158.628906 169.09375 C 159.46875 169.09375 160.164062 169.769531 160.164062 170.636719 C 160.164062 171.480469 159.46875 172.15625 158.628906 172.15625 Z M 158.628906 172.15625 "
        fill-opacity="1" fill-rule="nonzero" />
    <path fill="#ffffff"
        d="M 149.804688 196.160156 C 142.894531 196.160156 136.585938 194.617188 133.085938 191.964844 C 132.414062 191.460938 132.269531 190.496094 132.773438 189.820312 C 133.277344 189.148438 134.238281 189.003906 134.90625 189.507812 C 138.457031 192.207031 145.941406 193.582031 153.542969 192.929688 C 154.382812 192.859375 155.128906 193.484375 155.199219 194.328125 C 155.273438 195.171875 154.648438 195.917969 153.808594 195.992188 C 152.464844 196.085938 151.121094 196.160156 149.804688 196.160156 Z M 149.804688 196.160156 "
        fill-opacity="1" fill-rule="nonzero" />
    <path fill="#ffffff"
        d="M 150.929688 219.464844 C 144.550781 219.464844 138.839844 217.898438 134.957031 216.476562 C 134.164062 216.1875 133.757812 215.296875 134.042969 214.5 C 134.332031 213.707031 135.21875 213.296875 136.011719 213.585938 C 140.257812 215.152344 146.804688 216.886719 153.929688 216.257812 C 154.769531 216.1875 155.511719 216.8125 155.582031 217.65625 C 155.65625 218.5 155.03125 219.25 154.191406 219.320312 C 153.113281 219.417969 152.011719 219.464844 150.929688 219.464844 Z M 150.929688 219.464844 "
        fill-opacity="1" fill-rule="nonzero" />
    <g clip-path="url(#a87e1dec37)">
        <path fill="#ffffff"
            d="M 142.894531 165.601562 C 142.296875 165.601562 141.742188 165.238281 141.480469 164.660156 L 132.246094 142.777344 C 131.910156 142.007812 132.269531 141.089844 133.0625 140.777344 C 133.828125 140.4375 134.738281 140.800781 135.050781 141.597656 L 144.308594 163.480469 C 144.644531 164.25 144.285156 165.167969 143.496094 165.480469 C 143.304688 165.550781 143.109375 165.601562 142.894531 165.601562 Z M 142.894531 165.601562 "
            fill-opacity="1" fill-rule="nonzero" />
    </g>
</svg>