<svg version="1.1" id="Layer_1" xmlns="http://www.w3.org/2000/svg" xmlns:xlink="http://www.w3.org/1999/xlink" x="0px" y="0px"
	 width="100%" viewBox="0 0 500 500" enable-background="new 0 0 500 500" xml:space="preserve">
<path fill="#010101" opacity="1.000000" stroke="none"
	d="
M276.000000,501.000000
	C184.000015,501.000000 92.500046,501.000000 1.000049,501.000000
	C1.000033,334.333405 1.000033,167.666794 1.000016,1.000139
	C167.666565,1.000092 334.333130,1.000092 500.999756,1.000046
	C500.999847,167.666519 500.999847,334.333038 500.999939,500.999786
	C426.166656,501.000000 351.333344,501.000000 276.000000,501.000000
M137.477936,439.836365
	C141.464951,439.651154 145.460403,439.573608 149.437439,439.261261
	C163.394699,438.164917 166.903214,434.473206 167.494339,420.420959
	C167.550323,419.090118 167.506775,417.755005 167.506790,416.421875
	C167.507080,383.760040 167.396057,351.097504 167.606445,318.437012
	C167.645615,312.354767 168.710419,306.228668 169.887619,300.237885
	C170.202164,298.637146 172.627151,296.462006 174.182968,296.377075
	C175.688263,296.294830 178.062653,298.245544 178.760574,299.862213
	C180.860092,304.725525 182.725327,309.764526 183.979431,314.906342
	C193.076111,352.202972 202.003586,389.540833 210.975418,426.867889
	C213.032196,435.425079 216.296463,438.467133 225.082199,438.863068
	C233.216064,439.229645 241.384995,439.335114 249.519943,439.041687
	C262.083740,438.588501 265.274994,435.833923 268.651093,423.714600
	C268.873688,422.915588 268.993744,422.087982 269.162231,421.273834
	C276.102631,387.738983 282.943420,354.182922 290.072510,320.688232
	C291.408051,314.413452 293.315094,308.110931 296.032196,302.325470
	C298.336731,297.418396 303.094391,298.001526 305.284760,303.017303
	C306.199066,305.110962 306.964050,307.473145 306.987518,309.721680
	C307.286438,338.353455 307.429413,366.986877 307.631989,395.619720
	C307.706177,406.104950 307.533508,416.604065 308.032990,427.070160
	C308.414368,435.060272 311.659332,438.305267 319.506561,438.699371
	C329.618317,439.207214 339.762054,439.161163 349.892517,439.193909
	C364.452515,439.240967 371.033264,439.145477 371.012543,415.813904
	C370.971069,369.154175 371.050446,322.494202 370.904053,275.834900
	C370.892487,272.141937 371.983826,270.192108 375.243256,268.557312
	C380.733246,265.803711 385.986450,262.567383 391.276672,259.428558
	C398.800781,254.964325 398.865295,247.495712 391.372467,242.984970
	C385.679779,239.557922 379.738373,236.529526 374.172852,232.915283
	C372.629150,231.912781 371.246185,229.497330 371.142181,227.653809
	C370.776672,221.175400 371.000244,214.663742 371.000244,208.164703
	C371.000244,164.837769 371.028168,121.510811 370.981506,78.183937
	C370.969086,66.644859 367.124298,62.862667 355.674652,62.843964
	C336.859222,62.813225 318.043671,62.799343 299.228333,62.849178
	C287.696320,62.879723 284.076141,65.870895 281.990997,77.116852
	C280.657562,84.308784 279.669220,91.565269 278.305573,98.750954
	C269.253113,146.453156 260.137115,194.143295 251.052353,241.839371
	C249.589508,249.519501 248.289261,257.232513 246.697617,264.885345
	C245.931854,268.567261 243.726608,271.502991 239.707001,271.668884
	C235.996414,271.821960 233.517670,269.531708 232.448868,265.954224
	C231.545609,262.930786 230.577454,259.907806 229.961960,256.820068
	C220.599991,209.853912 211.296982,162.875977 201.966858,115.903450
	C199.214661,102.047577 196.512512,88.180717 193.609436,74.356262
	C192.065872,67.005898 188.296356,63.045132 182.302078,63.000797
	C159.975677,62.835682 137.646698,62.848652 115.320099,63.002396
	C109.637024,63.041527 106.300003,65.929642 105.142799,71.476425
	C104.367332,75.193413 104.051270,79.068962 104.045700,82.874321
	C103.975639,130.700485 103.936699,178.527008 104.116081,226.352600
	C104.130875,230.296768 102.881042,232.306625 99.553825,234.014252
	C93.935921,236.897476 88.432983,240.040451 83.072418,243.380295
	C76.416901,247.526932 76.510330,254.946289 83.194778,259.026917
	C88.722694,262.401489 94.264557,265.798248 100.046021,268.694580
	C103.229424,270.289368 104.081825,272.241913 104.074020,275.642334
	C103.964561,323.301666 103.982964,370.961426 104.034386,418.620972
	C104.038139,422.100342 104.269508,425.625244 104.861160,429.048401
	C105.984558,435.548065 109.434669,438.571625 116.040642,438.974884
	C122.848953,439.390472 129.672333,439.559448 137.477936,439.836365
M340.601196,449.496704
	C338.682922,449.496704 336.764648,449.496704 334.848877,449.496704
	C335.002045,462.455902 337.813599,465.601196 350.269440,465.764862
	C359.073578,465.880524 367.885651,465.223999 376.696747,465.028748
	C385.794220,464.827118 392.131561,460.247955 394.741425,451.911743
	C396.742432,445.520294 397.822144,438.582153 397.865021,431.877930
	C398.135590,389.563416 398.105988,347.245758 397.867188,304.930847
	C397.838226,299.805756 399.039703,296.747223 403.802338,294.529785
	C409.202454,292.015533 414.333832,288.850555 419.356567,285.618103
	C425.454559,281.693634 425.380829,274.361481 419.229614,270.504822
	C414.183167,267.340851 408.892426,264.566437 404.884277,262.287109
	C397.748413,266.528687 391.514465,270.564026 384.962006,273.990234
	C381.666321,275.713501 380.731262,277.699005 380.741760,281.308716
	C380.875183,327.123169 380.851685,372.938141 380.794525,418.752899
	C380.788940,423.232666 380.478760,427.732056 379.988556,432.186981
	C379.066437,440.566284 375.090424,445.509674 366.840515,446.922150
	C358.516357,448.347351 350.005707,448.683502 340.601196,449.496704
M180.524384,465.303833
	C189.053299,463.139740 193.111053,456.633820 193.490784,448.854279
	C194.316971,431.927826 195.938919,414.687378 193.708817,398.047943
	C190.427948,373.568237 184.077560,349.499207 178.982727,325.266144
	C178.780960,324.306488 178.043839,323.459351 176.983688,321.503815
	C176.249817,323.786835 175.541473,324.946625 175.559250,326.095154
	C175.757523,338.902069 176.137680,351.706177 176.332550,364.513153
	C176.661530,386.134064 177.264877,407.760681 177.021759,429.376678
	C176.880630,441.924927 172.648163,446.283051 160.111191,447.920776
	C150.619904,449.160614 140.982269,449.280121 131.370651,449.900696
	C130.918732,459.555359 134.247421,465.481384 141.935654,465.761444
	C154.510437,466.219482 167.123291,465.633240 180.524384,465.303833
M293.356476,456.790222
	C293.620850,456.181641 293.916901,455.584686 294.144867,454.962738
	C298.204071,443.888885 298.256165,432.578766 298.194275,420.817505
	C298.037537,391.047668 299.636963,361.269196 300.460815,331.492188
	C300.521912,329.284454 300.007629,327.060760 299.760803,324.844482
	C299.116852,324.828735 298.472900,324.813019 297.828949,324.797272
	C297.290222,326.415375 296.517914,327.995605 296.248413,329.657349
	C293.107117,349.029663 290.648376,368.536560 286.772461,387.758545
	C283.400543,404.481171 278.631805,420.935364 274.107574,437.405792
	C272.306061,443.964294 267.303619,447.556427 260.496246,448.117950
	C252.747147,448.757111 244.976044,449.129517 237.217789,449.617676
	C237.098236,459.107208 241.169434,464.821106 250.657593,465.501465
	C261.209320,466.258118 271.879486,465.515625 282.491791,465.208221
	C287.614471,465.059814 291.249451,462.400665 293.356476,456.790222
M389.572083,230.943436
	C392.228241,232.391159 394.884399,233.838898 398.000000,235.537033
	C398.000000,227.639450 398.000031,220.648315 398.000000,213.657166
	C397.999939,177.853958 398.049255,142.050644 397.973541,106.247597
	C397.946289,93.354034 393.174988,88.959373 380.832581,90.342430
	C380.832581,92.098335 380.832550,93.899063 380.832550,95.699791
	C380.832550,135.999207 381.033386,176.300583 380.642883,216.596222
	C380.574585,223.645172 382.027618,228.341476 389.572083,230.943436
M242.012283,243.558304
	C242.595551,240.283798 243.342865,237.028473 243.728500,233.730865
	C244.571198,226.524796 246.950653,218.977310 245.677719,212.131729
	C238.748459,174.867920 230.942322,137.766373 223.340286,100.628983
	C221.387619,91.089813 216.446671,88.215363 206.502136,90.573578
	C209.021744,103.099197 211.629150,115.618629 214.049210,128.174179
	C221.598206,167.339417 229.063980,206.520691 236.620331,245.684494
	C236.977676,247.536530 237.895264,249.280472 238.551941,251.074738
	C239.101257,251.009659 239.650574,250.944580 240.199890,250.879486
	C240.782913,248.717407 241.365936,246.555313 242.012283,243.558304
z"/>
<path fill="#FEFEFE" opacity="1.000000" stroke="none"
	d="
M136.983521,439.836365
	C129.672333,439.559448 122.848953,439.390472 116.040642,438.974884
	C109.434669,438.571625 105.984558,435.548065 104.861160,429.048401
	C104.269508,425.625244 104.038139,422.100342 104.034386,418.620972
	C103.982964,370.961426 103.964561,323.301666 104.074020,275.642334
	C104.081825,272.241913 103.229424,270.289368 100.046021,268.694580
	C94.264557,265.798248 88.722694,262.401489 83.194778,259.026917
	C76.510330,254.946289 76.416901,247.526932 83.072418,243.380295
	C88.432983,240.040451 93.935921,236.897476 99.553825,234.014252
	C102.881042,232.306625 104.130875,230.296768 104.116081,226.352600
	C103.936699,178.527008 103.975639,130.700485 104.045700,82.874321
	C104.051270,79.068962 104.367332,75.193413 105.142799,71.476425
	C106.300003,65.929642 109.637024,63.041527 115.320099,63.002396
	C137.646698,62.848652 159.975677,62.835682 182.302078,63.000797
	C188.296356,63.045132 192.065872,67.005898 193.609436,74.356262
	C196.512512,88.180717 199.214661,102.047577 201.966858,115.903450
	C211.296982,162.875977 220.599991,209.853912 229.961960,256.820068
	C230.577454,259.907806 231.545609,262.930786 232.448868,265.954224
	C233.517670,269.531708 235.996414,271.821960 239.707001,271.668884
	C243.726608,271.502991 245.931854,268.567261 246.697617,264.885345
	C248.289261,257.232513 249.589508,249.519501 251.052353,241.839371
	C260.137115,194.143295 269.253113,146.453156 278.305573,98.750954
	C279.669220,91.565269 280.657562,84.308784 281.990997,77.116852
	C284.076141,65.870895 287.696320,62.879723 299.228333,62.849178
	C318.043671,62.799343 336.859222,62.813225 355.674652,62.843964
	C367.124298,62.862667 370.969086,66.644859 370.981506,78.183937
	C371.028168,121.510811 371.000244,164.837769 371.000244,208.164703
	C371.000244,214.663742 370.776672,221.175400 371.142181,227.653809
	C371.246185,229.497330 372.629150,231.912781 374.172852,232.915283
	C379.738373,236.529526 385.679779,239.557922 391.372467,242.984970
	C398.865295,247.495712 398.800781,254.964325 391.276672,259.428558
	C385.986450,262.567383 380.733246,265.803711 375.243256,268.557312
	C371.983826,270.192108 370.892487,272.141937 370.904053,275.834900
	C371.050446,322.494202 370.971069,369.154175 371.012543,415.813904
	C371.033264,439.145477 364.452515,439.240967 349.892517,439.193909
	C339.762054,439.161163 329.618317,439.207214 319.506561,438.699371
	C311.659332,438.305267 308.414368,435.060272 308.032990,427.070160
	C307.533508,416.604065 307.706177,406.104950 307.631989,395.619720
	C307.429413,366.986877 307.286438,338.353455 306.987518,309.721680
	C306.964050,307.473145 306.199066,305.110962 305.284760,303.017303
	C303.094391,298.001526 298.336731,297.418396 296.032196,302.325470
	C293.315094,308.110931 291.408051,314.413452 290.072510,320.688232
	C282.943420,354.182922 276.102631,387.738983 269.162231,421.273834
	C268.993744,422.087982 268.873688,422.915588 268.651093,423.714600
	C265.274994,435.833923 262.083740,438.588501 249.519943,439.041687
	C241.384995,439.335114 233.216064,439.229645 225.082199,438.863068
	C216.296463,438.467133 213.032196,435.425079 210.975418,426.867889
	C202.003586,389.540833 193.076111,352.202972 183.979431,314.906342
	C182.725327,309.764526 180.860092,304.725525 178.760574,299.862213
	C178.062653,298.245544 175.688263,296.294830 174.182968,296.377075
	C172.627151,296.462006 170.202164,298.637146 169.887619,300.237885
	C168.710419,306.228668 167.645615,312.354767 167.606445,318.437012
	C167.396057,351.097504 167.507080,383.760040 167.506790,416.421875
	C167.506775,417.755005 167.550323,419.090118 167.494339,420.420959
	C166.903214,434.473206 163.394699,438.164917 149.437439,439.261261
	C145.460403,439.573608 141.464951,439.651154 136.983521,439.836365
z"/>
<path fill="#FDFDFD" opacity="1.000000" stroke="none"
	d="
M341.088989,449.496765
	C350.005707,448.683502 358.516357,448.347351 366.840515,446.922150
	C375.090424,445.509674 379.066437,440.566284 379.988556,432.186981
	C380.478760,427.732056 380.788940,423.232666 380.794525,418.752899
	C380.851685,372.938141 380.875183,327.123169 380.741760,281.308716
	C380.731262,277.699005 381.666321,275.713501 384.962006,273.990234
	C391.514465,270.564026 397.748413,266.528687 404.884277,262.287109
	C408.892426,264.566437 414.183167,267.340851 419.229614,270.504822
	C425.380829,274.361481 425.454559,281.693634 419.356567,285.618103
	C414.333832,288.850555 409.202454,292.015533 403.802338,294.529785
	C399.039703,296.747223 397.838226,299.805756 397.867188,304.930847
	C398.105988,347.245758 398.135590,389.563416 397.865021,431.877930
	C397.822144,438.582153 396.742432,445.520294 394.741425,451.911743
	C392.131561,460.247955 385.794220,464.827118 376.696747,465.028748
	C367.885651,465.223999 359.073578,465.880524 350.269440,465.764862
	C337.813599,465.601196 335.002045,462.455902 334.848877,449.496704
	C336.764648,449.496704 338.682922,449.496704 341.088989,449.496765
z"/>
<path fill="#F8F8F8" opacity="1.000000" stroke="none"
	d="
M180.122223,465.395691
	C167.123291,465.633240 154.510437,466.219482 141.935654,465.761444
	C134.247421,465.481384 130.918732,459.555359 131.370651,449.900696
	C140.982269,449.280121 150.619904,449.160614 160.111191,447.920776
	C172.648163,446.283051 176.880630,441.924927 177.021759,429.376678
	C177.264877,407.760681 176.661530,386.134064 176.332550,364.513153
	C176.137680,351.706177 175.757523,338.902069 175.559250,326.095154
	C175.541473,324.946625 176.249817,323.786835 176.983688,321.503815
	C178.043839,323.459351 178.780960,324.306488 178.982727,325.266144
	C184.077560,349.499207 190.427948,373.568237 193.708817,398.047943
	C195.938919,414.687378 194.316971,431.927826 193.490784,448.854279
	C193.111053,456.633820 189.053299,463.139740 180.122223,465.395691
z"/>
<path fill="#F9F9F9" opacity="1.000000" stroke="none"
	d="
M293.220642,457.145325
	C291.249451,462.400665 287.614471,465.059814 282.491791,465.208221
	C271.879486,465.515625 261.209320,466.258118 250.657593,465.501465
	C241.169434,464.821106 237.098236,459.107208 237.217789,449.617676
	C244.976044,449.129517 252.747147,448.757111 260.496246,448.117950
	C267.303619,447.556427 272.306061,443.964294 274.107574,437.405792
	C278.631805,420.935364 283.400543,404.481171 286.772461,387.758545
	C290.648376,368.536560 293.107117,349.029663 296.248413,329.657349
	C296.517914,327.995605 297.290222,326.415375 297.828949,324.797272
	C298.472900,324.813019 299.116852,324.828735 299.760803,324.844482
	C300.007629,327.060760 300.521912,329.284454 300.460815,331.492188
	C299.636963,361.269196 298.037537,391.047668 298.194275,420.817505
	C298.256165,432.578766 298.204071,443.888885 294.144867,454.962738
	C293.916901,455.584686 293.620850,456.181641 293.220642,457.145325
z"/>
<path fill="#FEFEFE" opacity="1.000000" stroke="none"
	d="
M389.254761,230.744171
	C382.027618,228.341476 380.574585,223.645172 380.642883,216.596222
	C381.033386,176.300583 380.832550,135.999207 380.832550,95.699791
	C380.832550,93.899063 380.832581,92.098335 380.832581,90.342430
	C393.174988,88.959373 397.946289,93.354034 397.973541,106.247597
	C398.049255,142.050644 397.999939,177.853958 398.000000,213.657166
	C398.000031,220.648315 398.000000,227.639450 398.000000,235.537033
	C394.884399,233.838898 392.228241,232.391159 389.254761,230.744171
z"/>
<path fill="#F9F9F9" opacity="1.000000" stroke="none"
	d="
M241.980621,243.975769
	C241.365936,246.555313 240.782913,248.717407 240.199890,250.879486
	C239.650574,250.944580 239.101257,251.009659 238.551941,251.074738
	C237.895264,249.280472 236.977676,247.536530 236.620331,245.684494
	C229.063980,206.520691 221.598206,167.339417 214.049210,128.174179
	C211.629150,115.618629 209.021744,103.099197 206.502136,90.573578
	C216.446671,88.215363 221.387619,91.089813 223.340286,100.628983
	C230.942322,137.766373 238.748459,174.867920 245.677719,212.131729
	C246.950653,218.977310 244.571198,226.524796 243.728500,233.730865
	C243.342865,237.028473 242.595551,240.283798 241.980621,243.975769
z"/>
</svg>
